<?xml version="1.0" standalone="no"?>
<!DOCTYPE svg PUBLIC "-//W3C//DTD SVG 20010904//EN"
 "http://www.w3.org/TR/2001/REC-SVG-20010904/DTD/svg10.dtd">
<svg version="1.0" xmlns="http://www.w3.org/2000/svg"
 width="700.000000pt" height="700.000000pt" viewBox="0 0 700.000000 700.000000"
 preserveAspectRatio="xMidYMid meet">
<metadata>
Created by potrace 1.14, written by Peter Selinger 2001-2017
</metadata>
<g transform="translate(0.000000,700.000000) scale(0.100000,-0.100000)"
fill="#000000" stroke="none">
<path d="M3285 6994 c-22 -2 -89 -9 -150 -14 -578 -57 -1180 -283 -1660 -625
-236 -169 -527 -443 -709 -670 -413 -516 -664 -1125 -748 -1820 -16 -135 -16
-591 0 -730 74 -626 284 -1178 634 -1669 213 -297 515 -599 815 -814 488 -349
1045 -561 1668 -634 144 -16 586 -16 735 1 689 78 1331 348 1854 779 127 105
340 316 451 447 450 532 722 1170 807 1890 7 62 13 220 13 365 0 145 -6 303
-13 365 -99 844 -447 1558 -1043 2141 -555 542 -1251 875 -2029 970 -118 14
-539 27 -625 18z m-479 -648 c164 -76 164 -306 1 -390 l-57 -29 0 -99 0 -98
-51 0 -52 0 5 103 5 102 -51 30 c-121 71 -142 240 -43 339 69 68 155 83 243
42z m1462 -101 c173 -73 165 -345 -13 -402 -26 -8 -31 -15 -37 -59 -3 -27 -7
-73 -7 -101 l-1 -53 -49 0 -49 0 5 103 5 102 -48 25 c-153 79 -143 315 16 384
46 20 131 20 178 1z m-773 -665 c578 -38 1066 -72 1087 -76 76 -12 149 -82
170 -161 11 -47 -65 -1290 -84 -1363 -16 -62 -87 -132 -149 -148 -37 -9 -252
3 -1225 67 -1308 87 -1223 77 -1292 155 -60 68 -60 51 -13 774 40 618 43 660
65 708 24 52 67 93 121 113 41 15 96 12 1320 -69z m-1599 -692 c-8 -217 -13
-248 -34 -248 -33 1 -98 37 -129 73 -69 79 -69 195 0 274 36 40 97 72 141 73
l28 0 -6 -172z m3031 -74 c93 -54 127 -186 73 -284 -31 -55 -93 -100 -149
-107 l-42 -6 6 124 c3 68 8 166 11 217 l6 94 26 -7 c15 -3 46 -17 69 -31z
m518 -909 c40 -39 34 -77 -21 -122 -68 -57 -99 -114 -99 -188 0 -72 25 -114
85 -145 56 -28 108 -25 175 10 67 35 103 38 139 9 37 -29 34 -69 -6 -115 -93
-106 -297 -114 -423 -18 l-46 35 -102 -39 c-106 -41 -221 -73 -342 -93 -82
-15 -346 -18 -458 -6 l-77 9 -32 46 c-18 26 -52 68 -75 93 l-44 47 63 -14 c35
-7 125 -18 200 -25 238 -21 537 21 729 103 l47 19 5 82 c7 105 18 142 68 216
74 112 161 150 214 96z m-2077 -122 l112 -6 0 -59 c0 -57 0 -58 28 -58 52 0
186 -40 271 -80 203 -97 357 -252 451 -453 79 -168 88 -248 106 -907 6 -255 6
-267 -14 -305 -11 -22 -31 -50 -44 -62 -56 -52 -49 -52 -883 -85 -767 -31
-785 -31 -825 -13 -62 28 -106 83 -118 147 -10 52 -25 573 -23 826 2 210 49
383 147 534 115 178 291 309 497 369 l77 23 0 68 0 68 53 0 c28 0 103 -3 165
-7z m-807 -409 c-38 -42 -82 -100 -98 -130 -16 -30 -38 -58 -53 -64 -54 -25
-220 -142 -306 -218 -147 -129 -294 -333 -294 -407 0 -13 16 -46 35 -75 44
-66 68 -146 68 -232 0 -133 -37 -198 -113 -198 -51 0 -74 27 -66 77 3 21 9 70
12 108 5 61 2 76 -18 115 -35 67 -79 93 -153 88 -78 -5 -119 -33 -151 -103
-29 -62 -49 -83 -91 -91 -26 -5 -37 -1 -59 21 -24 24 -26 32 -21 75 17 145
152 258 318 268 l78 5 16 40 c73 182 269 401 498 556 125 84 423 240 460 241
5 0 -23 -34 -62 -76z m1309 -1697 c0 -21 -28 -54 -67 -78 -35 -22 -51 -23
-372 -34 -335 -11 -372 -10 -417 20 -29 19 -59 63 -50 73 7 7 534 28 774 30
101 2 132 -1 132 -11z m-313 -222 c62 -18 136 -73 191 -139 47 -57 101 -161
109 -211 l6 -35 -59 26 c-33 15 -78 35 -102 45 l-42 18 -16 -37 c-8 -20 -49
-137 -91 -260 -42 -123 -79 -220 -83 -215 -4 4 -55 112 -115 238 -59 127 -111
234 -116 239 -4 5 -51 -15 -104 -43 -54 -29 -100 -50 -102 -47 -11 10 21 114
58 193 57 119 145 202 249 234 43 13 164 10 217 -6z"/>
<path d="M2547 5268 c-95 -13 -182 -87 -213 -181 -25 -74 -16 -190 19 -250 32
-54 87 -101 142 -122 43 -17 884 -78 897 -66 5 4 62 130 127 281 l119 275 -36
3 c-270 23 -1019 66 -1055 60z"/>
<path d="M3623 4921 c-66 -154 -118 -282 -115 -285 3 -4 26 -6 52 -6 l46 0
121 279 121 279 -30 6 c-74 15 -64 29 -195 -273z"/>
<path d="M3986 4895 c-65 -152 -116 -278 -113 -281 3 -3 73 -8 155 -11 149 -6
151 -6 206 21 95 46 146 128 154 242 6 88 -14 154 -63 212 -43 50 -125 92
-179 92 l-41 0 -119 -275z"/>
<path d="M2840 4300 c0 -37 2 -39 36 -46 42 -8 54 4 54 54 0 31 -1 32 -45 32
l-45 0 0 -40z"/>
<path d="M3050 4285 l0 -45 39 0 c37 0 39 2 44 37 7 43 -2 53 -50 53 -32 0
-33 -1 -33 -45z"/>
<path d="M3257 4275 c-2 -22 -3 -40 -3 -41 1 -1 20 -4 44 -8 l42 -6 0 44 c0
44 0 44 -39 48 -39 3 -39 3 -44 -37z"/>
<path d="M3466 4265 c-9 -47 -2 -55 45 -55 l39 0 0 45 0 45 -39 0 c-36 0 -39
-2 -45 -35z"/>
<path d="M3677 4283 c-4 -3 -7 -24 -7 -45 l0 -38 45 0 45 0 0 39 c0 32 -4 40
-22 45 -30 8 -53 8 -61 -1z"/>
<path d="M3485 3048 c-3 -7 -29 -85 -59 -173 l-54 -160 -15 35 c-9 19 -40 89
-70 155 l-54 120 -86 3 c-48 1 -87 1 -87 -1 0 -2 -13 -134 -30 -293 -16 -159
-30 -301 -30 -316 l0 -28 79 0 79 0 5 43 c4 23 9 94 13 157 3 63 10 121 13
128 4 8 38 -55 82 -153 l74 -166 39 3 39 3 61 177 c34 98 64 178 67 178 3 0
13 -51 23 -112 10 -62 22 -139 28 -170 l10 -58 85 0 c83 0 85 0 80 23 -3 12
-31 152 -61 310 -31 158 -58 292 -61 298 -9 14 -165 12 -170 -3z"/>
</g>
</svg>
