<svg xmlns="http://www.w3.org/2000/svg" width="288.093" height="320" viewBox="0 0 288.093 320">
  <g id="Group_68" data-name="Group 68" transform="translate(0 -0.01)">
    <g id="MCT" transform="translate(0 0.01)">
      <path id="Path_80" data-name="Path 80" d="M121.728,45.21,69.759,73.875,17.79,45.21v59.925l31.147,17.887a41.587,41.587,0,0,0,41.643,0l31.147-17.944Z" transform="translate(74.288 191.39)" fill="#93dcf5"/>
      <path id="Path_81" data-name="Path 81" d="M268.247,64.8,163.733,5.23a39.731,39.731,0,0,0-39.373,0L19.846,64.8A38.824,38.824,0,0,0,0,98.48V217.718A38.824,38.824,0,0,0,19.846,251.4l18.193,10.543V105.069a8.363,8.363,0,0,1,4.241-7.29,8.572,8.572,0,0,1,8.51.015l93.257,51.976,93.2-51.976a8.572,8.572,0,0,1,8.51-.015,8.363,8.363,0,0,1,4.241,7.29V261.787l18.193-10.543a38.827,38.827,0,0,0,19.9-33.526V98.48A38.824,38.824,0,0,0,268.247,64.8Z" transform="translate(0 -0.01)" fill="#93dcf5"/>
    </g>
  </g>
</svg>
