<svg xmlns="http://www.w3.org/2000/svg" width="72" height="72" viewBox="0 0 72 72"><g transform="translate(-272 -112)"><circle cx="36" cy="36" r="36" transform="translate(272 112)" fill="#004258"/><g transform="translate(171.082 93.07)"><g transform="translate(118.261 51.326)"><g transform="translate(14.297 18.714)"><path d="M255.8,441.607l-1.717.878c-.056-.481.7-3.725,3.415-3.725,2.572,0,3.554,2.939,3.554,3.389l-1.722-.76-.479,1.22-1.065,3.2Z" transform="translate(-253.469 -436.915)" fill="#fff"/><path d="M254.987,422.943l-5.289.18c-.495,0-1.2-.387-1.218-.913h0l7.661-.26h0C256.158,422.473,255.4,422.943,254.987,422.943Z" transform="translate(-248.48 -421.95)" fill="#fff"/></g><g transform="translate(0)"><path d="M128.2,289.491c-2.347,1.166-5.006,3.746-5.284,5.445a.148.148,0,0,0,.052.135,3.546,3.546,0,0,1,.63,3.6l-.014.028a.859.859,0,0,1-.592.391.777.777,0,0,1-.344-.037.43.43,0,0,1-.147-.084.556.556,0,0,1-.244-.563l.119-.384a1.83,1.83,0,0,0,.06-.219,2,2,0,0,0-.235-1.422,1.676,1.676,0,0,0-.27-.329l-.014-.011a1.515,1.515,0,0,0-1.2-.26,1.491,1.491,0,0,0-1.086,1.059.851.851,0,0,1-.917.6.6.6,0,0,1-.16-.066.626.626,0,0,1-.292-.564,2.286,2.286,0,0,1,.279-1.031,3.047,3.047,0,0,1,2.955-1.407.1.1,0,0,0,.11-.064c.687-1.717,2.476-4.662,8.317-7.059a16.022,16.022,0,0,0-1.124,1.213,3.746,3.746,0,0,0-.6,1.026" transform="translate(-118.261 -283.321)" fill="#fff"/><path d="M336.853,255.66a14.355,14.355,0,0,0,7.888-.364c.259-.1.51-.2.752-.312a.179.179,0,0,0,.1-.183,3.443,3.443,0,0,1,.439-2.18,3.344,3.344,0,0,1,1.043-1.084l.029-.014a.857.857,0,0,1,.708.019.776.776,0,0,1,.258.22.456.456,0,0,1,.075.157.557.557,0,0,1-.124.6l-.318.247a2.041,2.041,0,0,0-.176.147,2,2,0,0,0-.623,1.3,1.666,1.666,0,0,0,.035.419.118.118,0,0,0,0,.019,1.514,1.514,0,0,0,.831.9,1.49,1.49,0,0,0,1.5-.239.849.849,0,0,1,1.092.036.555.555,0,0,1,.093.146.622.622,0,0,1-.088.633,2.3,2.3,0,0,1-.82.686,3,3,0,0,1-3.166-.627.175.175,0,0,0-.188-.025,13.416,13.416,0,0,1-3.936,1.131,14.448,14.448,0,0,1-4.183-.11,6.712,6.712,0,0,0-.5-.731c-.267-.329-.595-.637-.722-.784" transform="translate(-312.848 -251.454)" fill="#fff"/></g><g transform="translate(9.833 1.145)"><path d="M1.951,17.2H1.938A1.689,1.689,0,0,1,.167,15.451L0,9.164a9.577,9.577,0,0,1,.315-2.6A7.371,7.371,0,0,1,6.1,1.192V0L8.816.147v.934a7.836,7.836,0,0,1,7.019,7.4l.212,6.5a1.629,1.629,0,0,1-.45,1.172,1.746,1.746,0,0,1-1.23.546ZM5.319,6.375h0l-.555,5.377h1.4l.223-2.984L7.7,11.643h.662l1.07-3.169.5,3.057h1.417L10.317,6.176H8.89L7.971,8.9l-.04.143L6.738,6.388Z" transform="translate(0 0)" fill="#fff"/></g></g><g transform="translate(121.865 30.93)"><g transform="translate(0 10.926)"><path d="M152.786,168.829a1.775,1.775,0,1,1,.171-3.546" transform="translate(-151.096 -165.281)" fill="#fff"/><path d="M389.75,185.163a1.8,1.8,0,0,0,.148-3.6" transform="translate(-363.554 -179.773)" fill="#fff"/></g><path d="M21.04,15.39c-.038,0-.076,0-.113,0L1.674,14.109A1.839,1.839,0,0,1,0,12.122L.673,1.758A1.845,1.845,0,0,1,2.475,0c.036,0,.072,0,.11,0L21.839,1.278a1.839,1.839,0,0,1,1.669,1.987L22.84,13.628A1.852,1.852,0,0,1,21.04,15.39Zm-6.594-3.909-.046.734.721.046.049-.732-.724-.048ZM12.7,11.365l-.047.734.721.048.048-.734-.723-.048Zm-1.741-.114-.046.732.721.048.046-.732-.721-.048Zm-1.741-.116-.046.732.721.048.049-.732-.724-.048ZM7.482,11.02l-.047.732.721.048.048-.732-.723-.048ZM5.377,3.23A2.277,2.277,0,0,0,3.1,5.377l-.017.254A2.3,2.3,0,0,0,5.2,8.074L18,8.92c.046,0,.095,0,.141,0A2.266,2.266,0,0,0,19.65,8.35a2.293,2.293,0,0,0,.759-1.571l.017-.254a2.291,2.291,0,0,0-2.111-2.441l-12.8-.85C5.459,3.232,5.418,3.23,5.377,3.23Z" transform="translate(2.245 5.915)" fill="#fff"/><g transform="translate(6.847 0)"><g transform="translate(12.254 0.876)"><path d="M326.808,77.351h0a1.772,1.772,0,0,1-1.69-1.851l.011-.161a1.767,1.767,0,0,1,1.913-1.612h0a1.775,1.775,0,0,1,1.689,1.852l-.011.16A1.767,1.767,0,0,1,326.808,77.351Z" transform="translate(-325.114 -73.722)" fill="#fff"/><path d="M337.418,104.515l-.809-.035-.079,1.93.809.035Z" transform="translate(-335.277 -101.104)" fill="#fff"/></g><path d="M215.164,69.372h0a1.774,1.774,0,0,1-1.683-1.851l.01-.16a1.765,1.765,0,0,1,1.91-1.614h0a1.773,1.773,0,0,1,1.682,1.851l-.01.16a1.764,1.764,0,0,1-1.909,1.614Z" transform="translate(-213.478 -65.741)" fill="#fff"/><path d="M225.806,86.736,225,86.7l-.126,3.008.81.035Z" transform="translate(-223.62 -84.399)" fill="#fff"/></g><g transform="translate(14.123 8.529)"><path d="M298.221,150.669l-1.861-.83,2.776-6.4,1.861.83Z" transform="translate(-294.538 -143.44)" fill="#fff"/><path d="M280.516,150.348l-.756-.337,2.77-6.4.756.337Z" transform="translate(-279.76 -143.591)" fill="#fff"/></g></g></g></g></svg>